<svg width="1920" height="1080" viewBox="0 0 1920 1080" fill="none" xmlns="http://www.w3.org/2000/svg">
<g clip-path="url(#clip0)">
<rect width="1920" height="1080" fill="#F8F8F8"/>
<path fill-rule="evenodd" clip-rule="evenodd" d="M386.416 43.1952C535.524 54.3079 645 170.119 780.113 234.136C958.475 318.643 1204.49 307.332 1303.8 477.849C1404.17 650.187 1357.83 885.524 1261.03 1059.89C1171.36 1221.43 982.898 1290.28 812.753 1362.4C676.928 1419.98 533.146 1446.03 386.416 1430.65C251.828 1416.55 130.926 1357.47 20.4317 1279.37C-91.425 1200.3 -169.506 1093.98 -248.348 981.987C-364.591 816.868 -595.134 668.678 -547.647 472.43C-501.111 280.111 -232.218 254.737 -52.3741 172.092C89.6138 106.844 230.577 31.5808 386.416 43.1952Z" fill="#32383F"/>
<path d="M447.352 471.812L460.5 508.938L473.578 471.812H487.43V523H476.848V509.008L477.902 484.855L464.086 523H456.844L443.062 484.891L444.117 509.008V523H433.57V471.812H447.352ZM494.391 503.629C494.391 499.855 495.117 496.492 496.57 493.539C498.023 490.586 500.109 488.301 502.828 486.684C505.57 485.066 508.746 484.258 512.355 484.258C517.488 484.258 521.672 485.828 524.906 488.969C528.164 492.109 529.98 496.375 530.355 501.766L530.426 504.367C530.426 510.203 528.797 514.891 525.539 518.43C522.281 521.945 517.91 523.703 512.426 523.703C506.941 523.703 502.559 521.945 499.277 518.43C496.02 514.914 494.391 510.133 494.391 504.086V503.629ZM504.551 504.367C504.551 507.977 505.23 510.742 506.59 512.664C507.949 514.562 509.895 515.512 512.426 515.512C514.887 515.512 516.809 514.574 518.191 512.699C519.574 510.801 520.266 507.777 520.266 503.629C520.266 500.09 519.574 497.348 518.191 495.402C516.809 493.457 514.863 492.484 512.355 492.484C509.871 492.484 507.949 493.457 506.59 495.402C505.23 497.324 504.551 500.312 504.551 504.367ZM535.102 503.699C535.102 497.77 536.426 493.047 539.074 489.531C541.746 486.016 545.391 484.258 550.008 484.258C553.711 484.258 556.77 485.641 559.184 488.406V469H569.379V523H560.203L559.711 518.957C557.18 522.121 553.922 523.703 549.938 523.703C545.461 523.703 541.863 521.945 539.145 518.43C536.449 514.891 535.102 509.98 535.102 503.699ZM545.262 504.438C545.262 508 545.883 510.73 547.125 512.629C548.367 514.527 550.172 515.477 552.539 515.477C555.68 515.477 557.895 514.152 559.184 511.504V496.492C557.918 493.844 555.727 492.52 552.609 492.52C547.711 492.52 545.262 496.492 545.262 504.438ZM594.762 523.703C589.184 523.703 584.637 521.992 581.121 518.57C577.629 515.148 575.883 510.59 575.883 504.895V503.91C575.883 500.09 576.621 496.68 578.098 493.68C579.574 490.656 581.66 488.336 584.355 486.719C587.074 485.078 590.168 484.258 593.637 484.258C598.84 484.258 602.93 485.898 605.906 489.18C608.906 492.461 610.406 497.113 610.406 503.137V507.285H586.184C586.512 509.77 587.496 511.762 589.137 513.262C590.801 514.762 592.898 515.512 595.43 515.512C599.344 515.512 602.402 514.094 604.605 511.258L609.598 516.848C608.074 519.004 606.012 520.691 603.41 521.91C600.809 523.105 597.926 523.703 594.762 523.703ZM593.602 492.484C591.586 492.484 589.945 493.164 588.68 494.523C587.438 495.883 586.641 497.828 586.289 500.359H600.422V499.551C600.375 497.301 599.766 495.566 598.594 494.348C597.422 493.105 595.758 492.484 593.602 492.484ZM637.582 494.488C636.199 494.301 634.98 494.207 633.926 494.207C630.082 494.207 627.562 495.508 626.367 498.109V523H616.207V484.961H625.805L626.086 489.496C628.125 486.004 630.949 484.258 634.559 484.258C635.684 484.258 636.738 484.41 637.723 484.715L637.582 494.488ZM651.855 484.961L652.172 489.355C654.891 485.957 658.535 484.258 663.105 484.258C667.137 484.258 670.137 485.441 672.105 487.809C674.074 490.176 675.082 493.715 675.129 498.426V523H664.969V498.672C664.969 496.516 664.5 494.957 663.562 493.996C662.625 493.012 661.066 492.52 658.887 492.52C656.027 492.52 653.883 493.738 652.453 496.176V523H642.293V484.961H651.855ZM733.875 509.184L738.867 484.961H748.676L738.973 523H730.465L723.258 499.059L716.051 523H707.578L697.875 484.961H707.684L712.641 509.148L719.602 484.961H726.949L733.875 509.184ZM775.781 523C775.312 522.086 774.973 520.949 774.762 519.59C772.301 522.332 769.102 523.703 765.164 523.703C761.438 523.703 758.344 522.625 755.883 520.469C753.445 518.312 752.227 515.594 752.227 512.312C752.227 508.281 753.715 505.188 756.691 503.031C759.691 500.875 764.016 499.785 769.664 499.762H774.34V497.582C774.34 495.824 773.883 494.418 772.969 493.363C772.078 492.309 770.66 491.781 768.715 491.781C767.004 491.781 765.656 492.191 764.672 493.012C763.711 493.832 763.23 494.957 763.23 496.387H753.07C753.07 494.184 753.75 492.145 755.109 490.27C756.469 488.395 758.391 486.93 760.875 485.875C763.359 484.797 766.148 484.258 769.242 484.258C773.93 484.258 777.645 485.441 780.387 487.809C783.152 490.152 784.535 493.457 784.535 497.723V514.211C784.559 517.82 785.062 520.551 786.047 522.402V523H775.781ZM767.379 515.934C768.879 515.934 770.262 515.605 771.527 514.949C772.793 514.27 773.73 513.367 774.34 512.242V505.703H770.543C765.457 505.703 762.75 507.461 762.422 510.977L762.387 511.574C762.387 512.84 762.832 513.883 763.723 514.703C764.613 515.523 765.832 515.934 767.379 515.934ZM805.98 508.621L813.012 484.961H823.91L808.617 528.906L807.773 530.91C805.5 535.879 801.75 538.363 796.523 538.363C795.047 538.363 793.547 538.141 792.023 537.695V529.996L793.57 530.031C795.492 530.031 796.922 529.738 797.859 529.152C798.82 528.566 799.57 527.594 800.109 526.234L801.305 523.105L787.98 484.961H798.914L805.98 508.621ZM858.012 475.609V484.961H864.516V492.414H858.012V511.398C858.012 512.805 858.281 513.812 858.82 514.422C859.359 515.031 860.391 515.336 861.914 515.336C863.039 515.336 864.035 515.254 864.902 515.09V522.789C862.91 523.398 860.859 523.703 858.75 523.703C851.625 523.703 847.992 520.105 847.852 512.91V492.414H842.297V484.961H847.852V475.609H858.012ZM867.539 503.629C867.539 499.855 868.266 496.492 869.719 493.539C871.172 490.586 873.258 488.301 875.977 486.684C878.719 485.066 881.895 484.258 885.504 484.258C890.637 484.258 894.82 485.828 898.055 488.969C901.312 492.109 903.129 496.375 903.504 501.766L903.574 504.367C903.574 510.203 901.945 514.891 898.688 518.43C895.43 521.945 891.059 523.703 885.574 523.703C880.09 523.703 875.707 521.945 872.426 518.43C869.168 514.914 867.539 510.133 867.539 504.086V503.629ZM877.699 504.367C877.699 507.977 878.379 510.742 879.738 512.664C881.098 514.562 883.043 515.512 885.574 515.512C888.035 515.512 889.957 514.574 891.34 512.699C892.723 510.801 893.414 507.777 893.414 503.629C893.414 500.09 892.723 497.348 891.34 495.402C889.957 493.457 888.012 492.484 885.504 492.484C883.02 492.484 881.098 493.457 879.738 495.402C878.379 497.324 877.699 500.312 877.699 504.367ZM431.32 587.699C431.32 581.77 432.645 577.047 435.293 573.531C437.965 570.016 441.609 568.258 446.227 568.258C449.93 568.258 452.988 569.641 455.402 572.406V553H465.598V607H456.422L455.93 602.957C453.398 606.121 450.141 607.703 446.156 607.703C441.68 607.703 438.082 605.945 435.363 602.43C432.668 598.891 431.32 593.98 431.32 587.699ZM441.48 588.438C441.48 592 442.102 594.73 443.344 596.629C444.586 598.527 446.391 599.477 448.758 599.477C451.898 599.477 454.113 598.152 455.402 595.504V580.492C454.137 577.844 451.945 576.52 448.828 576.52C443.93 576.52 441.48 580.492 441.48 588.438ZM484.195 607H474V568.961H484.195V607ZM473.402 559.117C473.402 557.594 473.906 556.34 474.914 555.355C475.945 554.371 477.34 553.879 479.098 553.879C480.832 553.879 482.215 554.371 483.246 555.355C484.277 556.34 484.793 557.594 484.793 559.117C484.793 560.664 484.266 561.93 483.211 562.914C482.18 563.898 480.809 564.391 479.098 564.391C477.387 564.391 476.004 563.898 474.949 562.914C473.918 561.93 473.402 560.664 473.402 559.117ZM513.199 596.488C513.199 595.246 512.578 594.273 511.336 593.57C510.117 592.844 508.148 592.199 505.43 591.637C496.383 589.738 491.859 585.895 491.859 580.105C491.859 576.73 493.254 573.918 496.043 571.668C498.855 569.395 502.523 568.258 507.047 568.258C511.875 568.258 515.73 569.395 518.613 571.668C521.52 573.941 522.973 576.895 522.973 580.527H512.812C512.812 579.074 512.344 577.879 511.406 576.941C510.469 575.98 509.004 575.5 507.012 575.5C505.301 575.5 503.977 575.887 503.039 576.66C502.102 577.434 501.633 578.418 501.633 579.613C501.633 580.738 502.16 581.652 503.215 582.355C504.293 583.035 506.098 583.633 508.629 584.148C511.16 584.641 513.293 585.203 515.027 585.836C520.395 587.805 523.078 591.215 523.078 596.066C523.078 599.535 521.59 602.348 518.613 604.504C515.637 606.637 511.793 607.703 507.082 607.703C503.895 607.703 501.059 607.141 498.574 606.016C496.113 604.867 494.18 603.309 492.773 601.34C491.367 599.348 490.664 597.203 490.664 594.906H500.297C500.391 596.711 501.059 598.094 502.301 599.055C503.543 600.016 505.207 600.496 507.293 600.496C509.238 600.496 510.703 600.133 511.688 599.406C512.695 598.656 513.199 597.684 513.199 596.488ZM545.473 599.512C547.348 599.512 548.871 598.996 550.043 597.965C551.215 596.934 551.824 595.562 551.871 593.852H561.398C561.375 596.43 560.672 598.797 559.289 600.953C557.906 603.086 556.008 604.75 553.594 605.945C551.203 607.117 548.555 607.703 545.648 607.703C540.211 607.703 535.922 605.98 532.781 602.535C529.641 599.066 528.07 594.285 528.07 588.191V587.523C528.07 581.664 529.629 576.988 532.746 573.496C535.863 570.004 540.141 568.258 545.578 568.258C550.336 568.258 554.145 569.617 557.004 572.336C559.887 575.031 561.352 578.629 561.398 583.129H551.871C551.824 581.16 551.215 579.566 550.043 578.348C548.871 577.105 547.324 576.484 545.402 576.484C543.035 576.484 541.242 577.352 540.023 579.086C538.828 580.797 538.23 583.586 538.23 587.453V588.508C538.23 592.422 538.828 595.234 540.023 596.945C541.219 598.656 543.035 599.512 545.473 599.512ZM589.98 603.133C587.473 606.18 584.004 607.703 579.574 607.703C575.496 607.703 572.379 606.531 570.223 604.188C568.09 601.844 567 598.41 566.953 593.887V568.961H577.113V593.535C577.113 597.496 578.918 599.477 582.527 599.477C585.973 599.477 588.34 598.281 589.629 595.891V568.961H599.824V607H590.262L589.98 603.133ZM628.09 596.488C628.09 595.246 627.469 594.273 626.227 593.57C625.008 592.844 623.039 592.199 620.32 591.637C611.273 589.738 606.75 585.895 606.75 580.105C606.75 576.73 608.145 573.918 610.934 571.668C613.746 569.395 617.414 568.258 621.938 568.258C626.766 568.258 630.621 569.395 633.504 571.668C636.41 573.941 637.863 576.895 637.863 580.527H627.703C627.703 579.074 627.234 577.879 626.297 576.941C625.359 575.98 623.895 575.5 621.902 575.5C620.191 575.5 618.867 575.887 617.93 576.66C616.992 577.434 616.523 578.418 616.523 579.613C616.523 580.738 617.051 581.652 618.105 582.355C619.184 583.035 620.988 583.633 623.52 584.148C626.051 584.641 628.184 585.203 629.918 585.836C635.285 587.805 637.969 591.215 637.969 596.066C637.969 599.535 636.48 602.348 633.504 604.504C630.527 606.637 626.684 607.703 621.973 607.703C618.785 607.703 615.949 607.141 613.465 606.016C611.004 604.867 609.07 603.309 607.664 601.34C606.258 599.348 605.555 597.203 605.555 594.906H615.188C615.281 596.711 615.949 598.094 617.191 599.055C618.434 600.016 620.098 600.496 622.184 600.496C624.129 600.496 625.594 600.133 626.578 599.406C627.586 598.656 628.09 597.684 628.09 596.488ZM665.145 596.488C665.145 595.246 664.523 594.273 663.281 593.57C662.062 592.844 660.094 592.199 657.375 591.637C648.328 589.738 643.805 585.895 643.805 580.105C643.805 576.73 645.199 573.918 647.988 571.668C650.801 569.395 654.469 568.258 658.992 568.258C663.82 568.258 667.676 569.395 670.559 571.668C673.465 573.941 674.918 576.895 674.918 580.527H664.758C664.758 579.074 664.289 577.879 663.352 576.941C662.414 575.98 660.949 575.5 658.957 575.5C657.246 575.5 655.922 575.887 654.984 576.66C654.047 577.434 653.578 578.418 653.578 579.613C653.578 580.738 654.105 581.652 655.16 582.355C656.238 583.035 658.043 583.633 660.574 584.148C663.105 584.641 665.238 585.203 666.973 585.836C672.34 587.805 675.023 591.215 675.023 596.066C675.023 599.535 673.535 602.348 670.559 604.504C667.582 606.637 663.738 607.703 659.027 607.703C655.84 607.703 653.004 607.141 650.52 606.016C648.059 604.867 646.125 603.309 644.719 601.34C643.312 599.348 642.609 597.203 642.609 594.906H652.242C652.336 596.711 653.004 598.094 654.246 599.055C655.488 600.016 657.152 600.496 659.238 600.496C661.184 600.496 662.648 600.133 663.633 599.406C664.641 598.656 665.145 597.684 665.145 596.488ZM682.125 602.008C682.125 600.391 682.664 599.078 683.742 598.07C684.844 597.062 686.215 596.559 687.855 596.559C689.52 596.559 690.891 597.062 691.969 598.07C693.07 599.078 693.621 600.391 693.621 602.008C693.621 603.602 693.082 604.902 692.004 605.91C690.926 606.895 689.543 607.387 687.855 607.387C686.191 607.387 684.82 606.895 683.742 605.91C682.664 604.902 682.125 603.602 682.125 602.008Z" fill="white"/>
<rect x="429" y="273" width="404" height="160" rx="68" fill="white"/>
<path d="M560.102 335.355H544.422V378H533.875V335.355H518.406V326.812H560.102V335.355ZM584.535 349.488C583.152 349.301 581.934 349.207 580.879 349.207C577.035 349.207 574.516 350.508 573.32 353.109V378H563.16V339.961H572.758L573.039 344.496C575.078 341.004 577.902 339.258 581.512 339.258C582.637 339.258 583.691 339.41 584.676 339.715L584.535 349.488ZM606.262 378.703C600.684 378.703 596.137 376.992 592.621 373.57C589.129 370.148 587.383 365.59 587.383 359.895V358.91C587.383 355.09 588.121 351.68 589.598 348.68C591.074 345.656 593.16 343.336 595.855 341.719C598.574 340.078 601.668 339.258 605.137 339.258C610.34 339.258 614.43 340.898 617.406 344.18C620.406 347.461 621.906 352.113 621.906 358.137V362.285H597.684C598.012 364.77 598.996 366.762 600.637 368.262C602.301 369.762 604.398 370.512 606.93 370.512C610.844 370.512 613.902 369.094 616.105 366.258L621.098 371.848C619.574 374.004 617.512 375.691 614.91 376.91C612.309 378.105 609.426 378.703 606.262 378.703ZM605.102 347.484C603.086 347.484 601.445 348.164 600.18 349.523C598.938 350.883 598.141 352.828 597.789 355.359H611.922V354.551C611.875 352.301 611.266 350.566 610.094 349.348C608.922 348.105 607.258 347.484 605.102 347.484ZM637.059 339.961L637.375 344.355C640.094 340.957 643.738 339.258 648.309 339.258C652.34 339.258 655.34 340.441 657.309 342.809C659.277 345.176 660.285 348.715 660.332 353.426V378H650.172V353.672C650.172 351.516 649.703 349.957 648.766 348.996C647.828 348.012 646.27 347.52 644.09 347.52C641.23 347.52 639.086 348.738 637.656 351.176V378H627.496V339.961H637.059ZM666.484 358.699C666.484 352.77 667.809 348.047 670.457 344.531C673.129 341.016 676.773 339.258 681.391 339.258C685.094 339.258 688.152 340.641 690.566 343.406V324H700.762V378H691.586L691.094 373.957C688.562 377.121 685.305 378.703 681.32 378.703C676.844 378.703 673.246 376.945 670.527 373.43C667.832 369.891 666.484 364.98 666.484 358.699ZM676.645 359.438C676.645 363 677.266 365.73 678.508 367.629C679.75 369.527 681.555 370.477 683.922 370.477C687.062 370.477 689.277 369.152 690.566 366.504V351.492C689.301 348.844 687.109 347.52 683.992 347.52C679.094 347.52 676.645 351.492 676.645 359.438ZM707.055 358.699C707.055 352.77 708.379 348.047 711.027 344.531C713.699 341.016 717.344 339.258 721.961 339.258C725.664 339.258 728.723 340.641 731.137 343.406V324H741.332V378H732.156L731.664 373.957C729.133 377.121 725.875 378.703 721.891 378.703C717.414 378.703 713.816 376.945 711.098 373.43C708.402 369.891 707.055 364.98 707.055 358.699ZM717.215 359.438C717.215 363 717.836 365.73 719.078 367.629C720.32 369.527 722.125 370.477 724.492 370.477C727.633 370.477 729.848 369.152 731.137 366.504V351.492C729.871 348.844 727.68 347.52 724.562 347.52C719.664 347.52 717.215 351.492 717.215 359.438Z" fill="#32383F"/>
</g>
<defs>
<clipPath id="clip0">
<rect width="1920" height="1080" fill="white"/>
</clipPath>
</defs>
</svg>
