<svg width="360" height="640" viewBox="0 0 360 640" fill="none" xmlns="http://www.w3.org/2000/svg">
<g clip-path="url(#clip0)">
<rect width="360" height="640" fill="#F8F8F8"/>
<path fill-rule="evenodd" clip-rule="evenodd" d="M-5.52789 195.398C44.1746 199.103 80.6667 237.706 125.704 259.045C185.158 287.214 267.163 283.444 300.266 340.283C333.722 397.729 318.277 476.175 286.012 534.297C256.12 588.143 193.299 611.092 136.584 635.134C91.3093 654.327 43.3818 663.01 -5.52789 657.884C-50.3906 653.183 -90.6913 633.489 -127.523 607.455C-164.808 581.101 -190.835 545.66 -217.116 508.329C-255.864 453.289 -332.711 403.893 -316.882 338.477C-301.37 274.37 -211.739 265.912 -151.791 238.364C-104.462 216.615 -57.4745 191.527 -5.52789 195.398Z" fill="#32383F"/>
</g>
<defs>
<clipPath id="clip0">
<rect width="360" height="640" fill="white"/>
</clipPath>
</defs>
</svg>
